<svg
  width="81"
  height="22"
  viewBox="0 0 81 22"
  fill="none"
  xmlns="http://www.w3.org/2000/svg"
>
  <g clip-path="url(#clip0_2930_7294)">
    <path
      d="M24.53 14.12V15.44H14.87C14.95 17.27 16.08 18.31 18.14 18.31C19.55 18.31 20.65 17.69 21.27 16.85L24.11 19.16C22.62 20.88 20.73 21.72 18.06 21.72C13.58 21.72 10.71 18.62 10.71 14.34C10.71 10.06 13.64 6.88 17.89 6.88C22.37 6.88 24.54 10.2 24.54 14.12H24.53ZM14.87 12.82H20.45C20.39 11.21 19.44 10 17.75 10C16.06 10 14.96 11.18 14.88 12.82H14.87Z"
      fill="#1B161C"
    />
    <path
      d="M49.37 7.16005H53.45V10.6501H49.37V16.0601C49.37 17.3001 50.16 18.0001 51.34 18.0001C52.18 18.0001 52.78 17.8001 53.17 17.5801L54.21 20.8501C53.45 21.3001 52.41 21.7201 50.94 21.7201C47.45 21.7201 45.22 19.7201 45.22 16.1201V10.6601H42.66V7.17005H45.22V2.43005H49.36V7.16005H49.37Z"
      fill="#1B161C"
    />
    <path
      d="M64.77 10.99H64.43C62.74 10.99 61.67 11.83 60.85 12.88V21.44H56.71V7.16H60.4L60.65 9.05C61.35 7.9 62.76 6.88 64.76 6.88V10.99H64.77Z"
      fill="#1B161C"
    />
    <path
      d="M76.41 8.77001L76.64 7.16H80.36V21.44H76.64L76.41 19.86C75.68 20.87 74.3 21.72 72.24 21.72C68.44 21.72 65.88 18.59 65.88 14.31C65.88 10.03 68.44 6.88 72.24 6.88C74.3 6.88 75.68 7.72001 76.41 8.77001ZM70.05 14.32C70.05 16.66 71.37 18.12 73.26 18.12C74.7 18.12 75.57 17.36 76.19 16.35V12.3C75.57 11.29 74.7 10.5 73.26 10.5C71.37 10.5 70.05 11.96 70.05 14.33V14.32Z"
      fill="#1B161C"
    />
    <path
      d="M4.31 17.61H8.47L10.71 21.45H0V0.0400391H4.31V17.61Z"
      fill="#1B161C"
    />
    <path
      d="M36.19 7.13L31.4 14.48V0H27.26V21.4H30.53L33.98 16.68L34.05 16.59L38.16 11.15L41.15 7.13H36.19ZM37.6 14.84L34.89 18.42L36.84 21.4H41.54L37.6 14.83V14.84Z"
      fill="#1B161C"
    />
  </g>
  <defs>
    <clipPath id="clip0_2930_7294">
      <rect width="80.35" height="21.72" fill="white" />
    </clipPath>
  </defs>
</svg>
